# xmcd CD database file
#
# Track frame offsets:
#	150
#	23010
#	42348
#	60633
#	87428
#	119548
#	137165
#	163970
#	189335
#	208280
#	226853
#
# Disc length: 3379 seconds
#
# Revision: 3
# Processed by: cddbd v1.5.1PL0 Copyright (c) Steve Scherf et al.
# Submitted via: CDex 1.40Release
#
DISCID=9a0d310b
DTITLE=Sambodhi Prem - Rose Water Moon
DYEAR=1992
DGENRE=Meditative
TTITLE0=Rose Water Moon
TTITLE1=Into the Heartland
TTITLE2=A Space Without Clouds
TTITLE3=Valley of the White Horse
TTITLE4=The Watercourse Way
TTITLE5=Pink Rose of Autumn
TTITLE6=Splashing in Waterfalls
TTITLE7=Midnight Tree
TTITLE8=1000 Faces of a Diamond
TTITLE9=Full Moon Dance
TTITLE10=Ecstatic Meeting
EXTD=YEAR: 1992 ID3G: 45
EXTT0=
EXTT1=
EXTT2=
EXTT3=
EXTT4=
EXTT5=
EXTT6=
EXTT7=
EXTT8=
EXTT9=
EXTT10=
PLAYORDER=
